<svg xmlns="http://www.w3.org/2000/svg" xmlns:xlink="http://www.w3.org/1999/xlink" id="Camada_1" x="0px" y="0px" viewBox="0 0 785 317.4" style="enable-background:new 0 0 785 317.4;" xml:space="preserve"><style type="text/css">	.st0{display:none;}	.st1{fill:#FFFFFF;}	.st2{fill:#522867;}	.st3{fill:#ED4266;}	.st4{fill:#FFD155;}	.st5{fill:#47BBA2;}	.st6{fill:url(#SVGID_1_);}</style><rect class="st0" width="1280" height="1024"></rect><g>	<g>		<g>			<path class="st1" d="M153.1,2.2v95.8c-8.1-7.9-19.5-11.6-34.4-11.6c-35.4,0-65.3,26.4-65.3,70c0,5.9,0.5,11.4,1.6,16.6l38.8-38.8    c14.3-14.3,37.8-14.3,52.1,0c7.1,7.2,10.7,16.6,10.7,26.1c0,9.5-3.6,18.9-10.7,26.1l-39.2,39.2c3.9,0.7,8,1.1,12,1.1    c16.8,0,29-4.4,37.1-13.6V224H209V2.2H153.1z"></path>			<path class="st1" d="M314.7,2.2v95.8c-8.1-7.9-19.5-11.6-34.3-11.6c-35.4,0-65.3,26.4-65.3,70c0,43.5,29.9,70.2,65.3,70.2    c16.8,0,28.9-4.4,37.1-13.6V224h53.1V2.2H314.7z M293.7,183c-12.4,0-22-9.1-22-26.7c0-17.6,9.6-26.5,22-26.5    c12.4,0,22,8.9,22,26.5C315.7,173.9,306.1,183,293.7,183z"></path>			<path class="st1" d="M553.8,88.8v71c0,15.8-4.7,22.2-14.8,22.2c-9.6,0-15.1-6.4-15.1-22.2v-71H468v71c0,15.8-5.4,22.2-15.1,22.2    c-9.4,0-14.8-6.4-14.8-22.2v-71h-55.9v74.7c0,40.5,25.5,63,69.5,63c17.6,0,32.6-3.7,44.3-15.6c11.6,11.9,26.9,15.6,44.3,15.6    c43.8,0,69.5-22.5,69.5-63V88.8H553.8z"></path>			<path class="st1" d="M711.5,86.3c-14.8,0-26.2,3.7-34.3,11.6V2.2h-55.9V224h53.2v-11.1c8.1,9.2,20.3,13.6,37.1,13.6    c35.4,0,65.3-26.7,65.3-70.2C776.8,112.8,746.9,86.3,711.5,86.3z M698.1,183c-12.4,0-22-9.1-22-26.7c0-17.6,9.7-26.5,22-26.5    c12.4,0,22,8.9,22,26.5C720.2,173.9,710.5,183,698.1,183z"></path>		</g>		<g>			<g>				<g>					<path class="st2" d="M360.2,268.9h116.6c1.4,0,2.6,1.2,2.6,2.6v0.8c0,1.4-1.2,2.6-2.6,2.6H360.2V268.9z"></path>				</g>				<g>											<rect x="240.9" y="268.9" transform="matrix(-1 -1.224647e-16 1.224647e-16 -1 601.0908 543.7626)" class="st3" width="119.2" height="6"></rect>				</g>				<g>											<rect x="121.7" y="268.9" transform="matrix(-1 -1.224647e-16 1.224647e-16 -1 362.5922 543.7626)" class="st4" width="119.2" height="6"></rect>				</g>				<g>					<path class="st5" d="M5,268.9h116.6v6H5c-1.4,0-2.6-1.2-2.6-2.6v-0.8C2.4,270,3.6,268.9,5,268.9z"></path>				</g>			</g>			<g>				<path class="st1" d="M527.3,258.4c-2.6-2.5-6.3-3.7-11.1-3.7c-3,0-5.8,0.5-8.5,1.5c-2.7,1-5.1,2.3-7,4l1.9,2.7     c1.6-1.5,3.6-2.7,6-3.6c2.4-0.9,4.8-1.3,7.4-1.3c3.8,0,6.6,1,8.6,2.8c1.9,1.9,2.9,4.6,2.9,8.3v3.1h-13.3c-5.1,0-8.7,1-11,3     c-2.3,2-3.4,4.6-3.4,7.8c0,3.3,1.2,6,3.8,8c2.5,2,5.9,3.1,10.2,3.1c3.3,0,6.2-0.6,8.5-1.9c2.4-1.2,4.2-3,5.4-5.3v6.9h3.5v-24.6     C531.2,264.4,529.9,260.8,527.3,258.4z M527.5,282.3c-1.1,2.8-2.8,5-5.1,6.5c-2.3,1.5-5,2.2-8.2,2.2c-3.4,0-6.1-0.7-8-2.2     c-1.9-1.5-2.8-3.4-2.8-6c0-2.4,0.9-4.3,2.6-5.7c1.7-1.4,4.5-2.1,8.3-2.1h13.2V282.3z"></path>				<path class="st1" d="M577.3,255v8.8c-1.5-2.9-3.7-5.1-6.6-6.7c-2.9-1.6-6.1-2.4-9.7-2.4c-3.6,0-6.9,0.8-9.8,2.4     c-3,1.6-5.3,3.8-7,6.7c-1.7,2.9-2.5,6.1-2.5,9.7c0,3.6,0.8,6.9,2.5,9.7c1.7,2.9,4,5.1,7,6.7c2.9,1.6,6.2,2.4,9.8,2.4     c3.5,0,6.7-0.8,9.5-2.3c2.8-1.6,5-3.7,6.6-6.6v6.6c0,5.2-1.2,8.9-3.7,11.4c-2.5,2.5-6.3,3.7-11.4,3.7c-3.1,0-6-0.5-8.7-1.5     c-2.7-1-5.1-2.4-7-4.2l-2,2.8c1.9,1.9,4.5,3.4,7.7,4.5c3.2,1.1,6.5,1.6,10.1,1.6c6.3,0,11-1.5,14.1-4.6     c3.1-3.1,4.7-7.8,4.7-14.3V255H577.3z M575.2,281.5c-1.3,2.4-3.2,4.2-5.7,5.5c-2.4,1.3-5.2,2-8.2,2c-3,0-5.7-0.6-8.1-2     c-2.4-1.3-4.3-3.1-5.6-5.5c-1.4-2.4-2-5-2-8.1c0-3,0.7-5.7,2-8c1.4-2.3,3.2-4.1,5.6-5.5c2.4-1.3,5.1-2,8.1-2c3,0,5.7,0.6,8.2,2     s4.3,3.1,5.7,5.5c1.4,2.3,2,5,2,8C577.2,276.5,576.6,279.2,575.2,281.5z"></path>				<path class="st1" d="M628.9,274.2c0-3.8-0.8-7.1-2.4-10.1c-1.6-3-3.8-5.3-6.6-6.9c-2.8-1.7-6-2.5-9.5-2.5     c-3.5,0-6.7,0.8-9.5,2.5c-2.8,1.7-5.1,4-6.7,7c-1.6,3-2.4,6.4-2.4,10.1c0,3.8,0.9,7.2,2.6,10.2c1.7,3,4.1,5.3,7.1,7     c3,1.7,6.4,2.5,10.3,2.5c3,0,5.7-0.5,8.3-1.6c2.6-1.1,4.7-2.7,6.4-4.7l-2.1-2.5c-1.5,1.8-3.2,3.1-5.4,4c-2.2,0.9-4.5,1.4-7,1.4     c-3.1,0-5.8-0.6-8.3-1.9c-2.5-1.3-4.4-3.1-5.9-5.5c-1.4-2.4-2.2-5.1-2.3-8.1h33.4L628.9,274.2z M595.5,272.4     c0.2-2.8,1-5.3,2.3-7.5c1.3-2.2,3.1-3.9,5.2-5.1c2.2-1.2,4.6-1.8,7.4-1.8s5.2,0.6,7.4,1.9c2.2,1.2,3.9,3,5.3,5.1     c1.3,2.2,2.1,4.7,2.2,7.4H595.5z M612.5,239.9h-4.1l-9.4,8.8h3.7l7.7-6.4l7.7,6.4h3.7L612.5,239.9z"></path>				<path class="st1" d="M670.3,258.9c-2.8-2.8-6.7-4.2-11.5-4.2c-3.6,0-6.8,0.8-9.4,2.3c-2.7,1.5-4.7,3.7-6,6.4V255h-3.6v38.8h3.7     v-20.7c0-4.6,1.3-8.3,3.9-11c2.6-2.7,6.2-4.1,10.8-4.1c4,0,7,1.1,9.2,3.4c2.2,2.3,3.3,5.6,3.3,9.9v22.4h3.7v-22.7     C674.5,265.8,673.1,261.8,670.3,258.9z"></path>				<path class="st1" d="M711.5,289.3c-2,1-4.3,1.4-6.8,1.4c-3,0-5.7-0.7-8.1-2c-2.4-1.4-4.3-3.3-5.6-5.8c-1.4-2.5-2-5.3-2-8.5     c0-3.2,0.7-6.1,2-8.5c1.3-2.5,3.2-4.4,5.6-5.7c2.4-1.4,5.1-2,8.1-2c2.5,0,4.7,0.5,6.8,1.5c2.1,1,3.8,2.4,5.2,4.4l2.7-2     c-1.6-2.3-3.7-4.1-6.2-5.3c-2.6-1.2-5.4-1.8-8.5-1.8c-3.8,0-7.1,0.8-10.1,2.5c-3,1.7-5.3,4-7,7c-1.7,3-2.5,6.4-2.5,10.2     c0,3.8,0.9,7.1,2.5,10.2c1.7,3,4,5.3,7,7c3,1.7,6.3,2.5,10.1,2.5c3.1,0,6-0.6,8.5-1.8c2.5-1.2,4.6-3,6.2-5.3l-2.7-2     C715.3,286.9,713.6,288.3,711.5,289.3z"></path>				<path class="st1" d="M734,240.4c-0.6-0.6-1.3-0.9-2.1-0.9c-0.8,0-1.6,0.3-2.1,0.9c-0.6,0.6-0.9,1.3-0.9,2.1     c0,0.9,0.3,1.6,0.9,2.1c0.6,0.6,1.3,0.9,2.1,0.9c0.9,0,1.6-0.3,2.1-0.9c0.6-0.6,0.9-1.3,0.9-2.2     C734.9,241.7,734.6,241,734,240.4z M730,255v38.8h3.7V255H730z"></path>				<path class="st1" d="M772.9,258.4c-2.6-2.5-6.3-3.7-11.1-3.7c-3,0-5.8,0.5-8.5,1.5c-2.7,1-5.1,2.3-7,4l1.8,2.7     c1.7-1.5,3.7-2.7,6-3.6c2.4-0.9,4.8-1.3,7.4-1.3c3.8,0,6.6,1,8.6,2.8c2,1.9,3,4.6,3,8.3v3.1h-13.3c-5.1,0-8.7,1-11,3     c-2.3,2-3.4,4.6-3.4,7.8c0,3.3,1.2,6,3.7,8c2.5,2,5.9,3.1,10.2,3.1c3.3,0,6.2-0.6,8.5-1.9c2.4-1.2,4.2-3,5.4-5.3v6.9h3.6v-24.6     C776.8,264.4,775.5,260.8,772.9,258.4z M773.1,282.3c-1.1,2.8-2.8,5-5.1,6.5c-2.3,1.5-5,2.2-8.2,2.2c-3.4,0-6.1-0.7-8-2.2     c-1.9-1.5-2.8-3.4-2.8-6c0-2.4,0.9-4.3,2.6-5.7c1.7-1.4,4.5-2.1,8.3-2.1h13.2V282.3z"></path>			</g>		</g>	</g>	<g>		<linearGradient id="SVGID_1_" gradientUnits="userSpaceOnUse" x1="73.5901" y1="204.9593" x2="56.1923" y2="227.0517">			<stop offset="0" style="stop-color:#DC5B5E"></stop>			<stop offset="1" style="stop-color:#F5E26B"></stop>		</linearGradient>		<path class="st6" d="M56.2,185.2c4.1,8.1,9.5,15.4,15.8,21.7c6.3,6.3,13.6,11.7,21.7,15.8c3.1,1.6,2.8,6.4-0.6,7.3   c0,0-0.1,0-0.1,0l-25.7,6c-2.1,0.5-4-0.2-5.3-1.5c-1.3-1.4-1.8-3.3-1.2-5.2l2.9-9.9c0.4-1.3,0-2.5-0.9-3.3c-0.8-0.8-2-1.3-3.3-0.9   l-9.9,2.9c-1.9,0.6-3.9,0.1-5.2-1.2c-1.3-1.3-2-3.2-1.5-5.3l6-25.7c0,0,0-0.1,0-0.1C49.8,182.4,54.6,182,56.2,185.2z"></path>	</g>	<g>		<path class="st1" d="M132.6,158.6c0,2.9-1.1,5.7-3.3,8l-8,8l-10.6-10.6l-5.3-5.3l8-8c4.4-4.4,11.5-4.4,15.9,0   C131.5,152.9,132.6,155.7,132.6,158.6z"></path>	</g></g></svg>